HIERARCHY
ROOT Hips
{
	OFFSET 0.000000 0.000000 0.000000
	CHANNELS 6 Xposition Yposition Zposition Xrotation Yrotation Zrotation
	JOINT LeftUpLeg_virtual
	{
		OFFSET 0.000000 0.000000 0.000000
		CHANNELS 3 Xrotation Yrotation Zrotation
		JOINT LeftUpLeg
		{
			OFFSET 11.394100 -6.187798 -0.413800
			CHANNELS 3 Xrotation Yrotation Zrotation
			JOINT LeftLeg
			{
				OFFSET 0.430247 -32.302673 3.732800
				CHANNELS 3 Xrotation Yrotation Zrotation
				JOINT LeftFoot
				{
					OFFSET -0.430247 -48.264931 -6.423300
					CHANNELS 3 Xrotation Yrotation Zrotation
					JOINT LeftToeBase
					{
						OFFSET 4.230900 -16.068199 23.438400
						CHANNELS 3 Xrotation Yrotation Zrotation
						JOINT LeftToe_End
						{
							OFFSET 4.510700 0.695400 19.974600
							CHANNELS 3 Xrotation Yrotation Zrotation
							End Site
							{
								OFFSET 0 0 0
							}
						}
					}
				}
			}
		}
	}
	JOINT RightUpLeg_virtual
	{
		OFFSET 0.000000 0.000000 0.000000
		CHANNELS 3 Xrotation Yrotation Zrotation
		JOINT RightUpLeg
		{
			OFFSET -11.333700 -6.187798 -0.413800
			CHANNELS 3 Xrotation Yrotation Zrotation
			JOINT RightLeg
			{
				OFFSET -0.430392 -32.302628 3.733000
				CHANNELS 3 Xrotation Yrotation Zrotation
				JOINT RightFoot
				{
					OFFSET 0.430392 -48.264973 -6.423500
					CHANNELS 3 Xrotation Yrotation Zrotation
					JOINT RightToeBase
					{
						OFFSET -4.230900 -16.068199 23.438400
						CHANNELS 3 Xrotation Yrotation Zrotation
						JOINT RightToe_End
						{
							OFFSET -4.510700 0.695400 19.974600
							CHANNELS 3 Xrotation Yrotation Zrotation
							End Site
							{
								OFFSET 0 0 0
							}
						}
					}
				}
			}
		}
	}
	JOINT Spine_virtual
	{
		OFFSET 0.000000 0.000000 0.000000
		CHANNELS 3 Xrotation Yrotation Zrotation
		JOINT Spine
		{
			OFFSET -0.002400 12.777504 0.315300
			CHANNELS 3 Xrotation Yrotation Zrotation
			JOINT Spine1
			{
				OFFSET -0.002067 5.816869 0.032633
				CHANNELS 3 Xrotation Yrotation Zrotation
				JOINT Spine1_split
				{
					OFFSET -0.002067 5.816869 0.032633
					CHANNELS 3 Xrotation Yrotation Zrotation
					JOINT Spine2
					{
						OFFSET -0.002067 5.816869 0.032633
						CHANNELS 3 Xrotation Yrotation Zrotation
						JOINT Neck_virtual
						{
							OFFSET 0.000000 0.000000 0.000000
							CHANNELS 3 Xrotation Yrotation Zrotation
							JOINT Neck
							{
								OFFSET -0.003700 21.199493 -0.826900
								CHANNELS 3 Xrotation Yrotation Zrotation
								JOINT Head
								{
									OFFSET 0.000000 20.442200 4.834800
									CHANNELS 3 Xrotation Yrotation Zrotation
									JOINT HeadTop_End
									{
										OFFSET 0.000000 34.668396 4.968400
										CHANNELS 3 Xrotation Yrotation Zrotation
										End Site
										{
											OFFSET 0 0 0
										}
									}
								}
							}
						}
						JOINT LeftShoulder_virtual
						{
							OFFSET 0.000000 0.000000 0.000000
							CHANNELS 3 Xrotation Yrotation Zrotation
							JOINT LeftShoulder
							{
								OFFSET 3.288150 8.794197 -1.372250
								CHANNELS 3 Xrotation Yrotation Zrotation
								JOINT LeftShoulder_split
								{
									OFFSET 3.288150 8.794197 -1.372250
									CHANNELS 3 Xrotation Yrotation Zrotation
									JOINT LeftArm
									{
										OFFSET 11.953299 -2.279007 -0.146200
										CHANNELS 3 Xrotation Yrotation Zrotation
										JOINT LeftForeArm
										{
											OFFSET 18.448900 0.000000 0.000000
											CHANNELS 3 Xrotation Yrotation Zrotation
											JOINT LeftHand
											{
												OFFSET 29.527798 0.000000 0.000000
												CHANNELS 3 Xrotation Yrotation Zrotation
												End Site
												{
													OFFSET 0 0 0
												}
											}
										}
									}
								}
							}
						}
						JOINT RightShoulder_virtual
						{
							OFFSET 0.000000 0.000000 0.000000
							CHANNELS 3 Xrotation Yrotation Zrotation
							JOINT RightShoulder
							{
								OFFSET -3.249400 8.794197 -1.372250
								CHANNELS 3 Xrotation Yrotation Zrotation
								JOINT RightShoulder_split
								{
									OFFSET -3.249400 8.794197 -1.372250
									CHANNELS 3 Xrotation Yrotation Zrotation
									JOINT RightArm
									{
										OFFSET -11.953299 -2.279007 -0.146200
										CHANNELS 3 Xrotation Yrotation Zrotation
										JOINT RightForeArm
										{
											OFFSET -18.448900 0.000000 0.000000
											CHANNELS 3 Xrotation Yrotation Zrotation
											JOINT RightHand
											{
												OFFSET -29.527802 0.000000 0.000000
												CHANNELS 3 Xrotation Yrotation Zrotation
												End Site
												{
													OFFSET 0 0 0
												}
											}
										}
									}
								}
							}
						}
					}
				}
			}
		}
	}
}
MOTION
Frames: 6
Frame Time: 0.03333333
14.284701 63.092415 -40.388157 0.000000 0.000000 0.000000 50.203414 -30.581489 16.536293 -80.174167 -5.599711 -2.306262 109.595460 -14.235380 -0.063447 13.477286 -8.036308 -15.380326 31.401996 -38.908364 -51.518973 0.000000 0.000000 0.000000 50.203414 -30.581489 16.536293 -121.797955 -2.412781 -24.248591 110.085232 -11.601678 6.174219 -15.752542 -8.154948 3.165835 -10.720136 -0.000009 -0.000003 0.000000 0.000000 0.000000 50.203414 -30.581489 16.536293 30.483223 10.744368 3.564423 6.852555 2.109580 1.261720 0.000000 0.000000 0.000000 0.000000 0.000000 0.000000 6.827508 2.179072 1.278345 -8.363020 -4.563618 1.740610 -21.240565 -18.756125 -6.620606 0.000000 0.000000 0.000000 6.827508 2.179072 1.278345 5.608892 -23.469901 -9.113350 0.000000 0.000000 0.000000 -29.183206 -12.430047 -40.885410 -0.000014 -37.552629 -0.000009 0.000000 0.000000 0.000000 6.827508 2.179072 1.278345 -0.559070 30.137185 14.434194 0.000000 0.000000 0.000000 -44.135805 50.708718 11.921778 0.000002 9.608859 -0.000002 0.000000 0.000000 0.000000 
14.482295 63.607262 -40.240635 0.000000 0.000000 0.000000 49.328504 -31.694841 16.591248 -84.390457 -6.541132 -1.404495 112.152977 -13.096690 -0.733828 16.407549 -7.566747 -13.618301 -34.022064 -41.202460 59.461359 0.000000 0.000000 0.000000 49.328504 -31.694841 16.591248 -119.825834 -2.917670 -23.610745 108.998344 -11.493674 6.119754 -15.891726 -8.083228 3.236853 -10.407088 0.000008 0.000011 0.000000 0.000000 0.000000 49.328504 -31.694841 16.591248 30.542758 10.559973 3.055051 6.860068 2.066863 1.129969 0.000000 0.000000 0.000000 0.000000 0.000000 0.000000 6.835840 2.135324 1.146299 -7.949791 -4.235515 1.372950 -21.131458 -17.422409 -7.101427 0.000000 0.000000 0.000000 6.835840 2.135324 1.146299 5.673087 -23.734086 -9.066817 0.000000 0.000000 0.000000 -27.862334 -10.438789 -41.186461 -0.000029 -38.893457 -0.000006 0.000000 0.000000 0.000000 6.835840 2.135324 1.146299 -0.454826 29.350989 14.140374 0.000000 0.000000 0.000000 -42.011920 48.862729 12.344902 0.000005 14.620237 0.000001 0.000000 0.000000 0.000000 
14.626018 64.169182 -39.899914 0.000000 0.000000 0.000000 48.443212 -32.806567 16.672044 -88.611036 -7.651518 -0.806427 114.350849 -12.170811 -1.081800 19.425201 -6.603682 -13.119764 -75.743424 -36.679762 7.513313 0.000000 0.000000 0.000000 48.443212 -32.806567 16.672044 -117.545643 -3.154760 -23.065665 107.823436 -11.375864 6.089151 -15.928872 -7.976269 3.862872 -10.060367 0.000006 0.000014 0.000000 0.000000 0.000000 48.443212 -32.806567 16.672044 30.701830 10.483878 2.387614 6.900523 2.048713 0.955039 0.000000 0.000000 0.000000 0.000000 0.000000 0.000000 6.876926 2.117282 0.970889 -7.571698 -3.834395 0.935142 -20.880421 -15.870578 -7.421786 0.000000 0.000000 0.000000 6.876926 2.117282 0.970889 5.697512 -23.899187 -8.949575 0.000000 0.000000 0.000000 -27.065941 -8.692578 -41.259848 0.000011 -40.071610 -0.000007 0.000000 0.000000 0.000000 6.876926 2.117282 0.970889 -0.244504 28.311474 13.397254 0.000000 0.000000 0.000000 -39.815908 48.075263 12.700978 -0.000006 18.268890 0.000008 0.000000 0.000000 0.000000 
14.700168 64.875862 -39.362080 0.000000 0.000000 0.000000 47.291916 -33.963075 16.834009 -92.293020 -8.310621 -1.339704 116.407597 -12.018397 -0.575092 20.882299 -5.773151 -13.920618 -73.789320 -40.143119 11.460485 0.000000 0.000000 0.000000 47.291916 -33.963075 16.834009 -114.704585 -3.243753 -22.332540 106.442720 -11.192431 5.962089 -16.204349 -8.067225 4.522413 -9.529927 -0.000010 0.000005 0.000000 0.000000 0.000000 47.291916 -33.963075 16.834009 31.174718 10.438489 1.443842 6.973899 2.045117 0.742945 0.000000 0.000000 0.000000 0.000000 0.000000 0.000000 6.951637 2.112848 0.758501 -7.147407 -3.347711 0.366289 -20.800945 -14.109174 -7.588873 0.000000 0.000000 0.000000 6.951637 2.112848 0.758501 5.880270 -24.606308 -8.861686 0.000000 0.000000 0.000000 -26.458076 -6.906714 -40.061570 -0.000024 -41.627445 -0.000016 0.000000 0.000000 0.000000 6.951637 2.112848 0.758501 0.069428 27.515634 12.075455 0.000000 0.000000 0.000000 -38.169132 47.324567 12.915037 0.000006 21.820982 -0.000011 0.000000 0.000000 0.000000 
14.652608 65.821213 -38.630711 0.000000 0.000000 0.000000 46.212725 -35.059791 17.019438 -96.273743 -8.384259 -2.211461 118.955640 -10.801430 0.478017 20.338188 -4.306935 -12.332993 -70.514982 -34.517870 15.753640 0.000000 0.000000 0.000000 46.212725 -35.059791 17.019438 -111.335799 -3.411998 -21.328808 104.611492 -10.717356 5.835749 -16.750781 -8.699106 5.101061 -8.882320 0.000002 0.000001 0.000000 0.000000 0.000000 46.212725 -35.059791 17.019438 31.655806 10.411260 0.392607 7.073839 2.060563 0.500874 0.000000 0.000000 0.000000 0.000000 0.000000 0.000000 7.052991 2.127536 0.515824 -6.700987 -2.817855 -0.200212 -20.783272 -12.215081 -7.424490 0.000000 0.000000 0.000000 7.052991 2.127536 0.515824 6.184822 -25.737507 -8.719600 0.000000 0.000000 0.000000 -25.567736 -5.399167 -37.802901 -0.000004 -43.339306 -0.000014 0.000000 0.000000 0.000000 7.052991 2.127536 0.515824 0.371325 27.275254 10.690506 0.000000 0.000000 0.000000 -37.139133 46.241938 12.993744 -0.000000 25.612269 0.000002 0.000000 0.000000 0.000000 
14.500590 66.944908 -37.718388 0.000000 0.000000 0.000000 45.603664 -35.657255 17.128117 -101.042315 -10.026589 -1.371489 120.399542 -7.792413 1.149970 21.078164 -3.006419 -9.793186 -73.543932 -22.071806 9.898286 0.000000 0.000000 0.000000 45.603664 -35.657255 17.128117 -107.869102 -3.681449 -20.447314 102.431903 -10.007089 5.907136 -17.683525 -9.682250 5.287520 -8.305789 0.000008 -0.000001 0.000000 0.000000 0.000000 45.603664 -35.657255 17.128117 31.771622 10.320819 -0.357696 7.064874 2.055941 0.350517 0.000000 0.000000 0.000000 0.000000 0.000000 0.000000 7.044985 2.121782 0.364692 -6.408414 -2.310496 -0.579010 -20.734689 -10.182002 -7.264286 0.000000 0.000000 0.000000 7.044985 2.121782 0.364692 6.320869 -26.347269 -8.474964 0.000000 0.000000 0.000000 -25.121700 -4.615689 -35.775380 -0.000015 -44.098870 -0.000006 0.000000 0.000000 0.000000 7.044985 2.121782 0.364692 0.673118 27.111007 9.277729 0.000000 0.000000 0.000000 -37.001990 45.385603 13.518118 0.000008 29.168398 -0.000028 0.000000 0.000000 0.000000 
